<svg width="209" height="46" viewBox="0 0 209 46" fill="none" xmlns="http://www.w3.org/2000/svg">
<path d="M20.896 22.008C20.896 22.456 20.768 22.92 20.512 23.4C20.288 23.88 20 24.36 19.648 24.84C19.296 25.32 18.912 25.784 18.496 26.232C18.08 26.648 17.696 27.016 17.344 27.336C16.48 28.104 15.584 28.84 14.656 29.544C13.76 30.216 12.816 30.824 11.824 31.368C10.864 31.912 9.856 32.344 8.8 32.664C7.744 32.984 6.64 33.144 5.488 33.144C2 33.144 0.256 31.352 0.256 27.768C0.256 27.416 0.4 26.728 0.688 25.704C0.976 24.68 1.344 23.512 1.792 22.2C2.24 20.888 2.768 19.512 3.376 18.072C3.984 16.632 4.608 15.32 5.248 14.136C5.888 12.92 6.512 11.928 7.12 11.16C7.76 10.392 8.352 10.008 8.896 10.008C9.248 10.008 9.504 10.12 9.664 10.344C9.856 10.568 9.952 10.808 9.952 11.064C9.92 11.256 9.696 11.672 9.28 12.312C8.864 12.92 8.432 13.544 7.984 14.184C7.92 14.28 7.808 14.44 7.648 14.664C7.488 14.888 7.328 15.112 7.168 15.336C6.976 15.592 6.784 15.864 6.592 16.152C6.464 16.376 6.176 16.952 5.728 17.88C5.312 18.776 4.864 19.832 4.384 21.048C3.904 22.232 3.472 23.48 3.088 24.792C2.704 26.072 2.512 27.192 2.512 28.152C2.512 28.696 2.624 29.128 2.848 29.448C3.104 29.768 3.392 30.008 3.712 30.168C4.064 30.328 4.416 30.44 4.768 30.504C5.152 30.536 5.488 30.552 5.776 30.552C6.96 30.552 8.208 30.296 9.52 29.784C10.864 29.24 12.144 28.536 13.36 27.672C14.576 26.808 15.696 25.816 16.72 24.696C17.744 23.544 18.544 22.36 19.12 21.144C19.248 20.92 19.376 20.776 19.504 20.712C19.664 20.648 19.808 20.616 19.936 20.616C20.192 20.616 20.416 20.792 20.608 21.144C20.8 21.496 20.896 21.784 20.896 22.008ZM40.7901 25.032C40.7901 25.32 40.5981 25.624 40.2141 25.944C39.8301 26.264 39.3821 26.568 38.8701 26.856C38.3581 27.112 37.8301 27.336 37.2861 27.528C36.7741 27.72 36.3901 27.816 36.1341 27.816C35.8461 27.816 35.5261 27.736 35.1741 27.576C34.8541 27.416 34.5341 27.224 34.2141 27C33.9261 26.776 33.6701 26.568 33.4461 26.376C33.2221 26.184 33.0781 26.056 33.0141 25.992C32.9181 26.088 32.7741 26.28 32.5821 26.568C32.3901 26.856 32.1501 27.176 31.8621 27.528C31.6061 27.848 31.3181 28.136 30.9981 28.392C30.7101 28.648 30.4061 28.776 30.0861 28.776C29.2541 28.776 28.5341 28.328 27.9261 27.432C27.3181 26.536 26.8061 25.512 26.3901 24.36C26.0061 23.208 25.7021 22.104 25.4781 21.048C25.2861 19.96 25.1901 19.224 25.1901 18.84C25.1901 18.616 25.3021 18.44 25.5261 18.312C25.7821 18.152 25.9741 18.072 26.1021 18.072C26.5501 18.072 26.8541 18.232 27.0141 18.552C27.1741 18.84 27.2541 19.16 27.2541 19.512C27.2541 19.8 27.3341 20.312 27.4941 21.048C27.6861 21.784 27.9101 22.536 28.1661 23.304C28.4221 24.072 28.6941 24.76 28.9821 25.368C29.2701 25.944 29.5261 26.232 29.7501 26.232C30.1661 26.232 30.5181 25.976 30.8061 25.464C31.1261 24.92 31.3821 24.312 31.5741 23.64C31.7661 22.936 31.9101 22.28 32.0061 21.672C32.1021 21.032 32.1501 20.616 32.1501 20.424C32.1501 20.392 32.1501 20.296 32.1501 20.136C32.1821 19.944 32.2141 19.752 32.2461 19.56C32.2781 19.368 32.2941 19.192 32.2941 19.032C32.3261 18.872 32.3421 18.76 32.3421 18.696C32.3421 18.472 32.2941 18.328 32.1981 18.264C32.1021 18.168 32.0541 17.992 32.0541 17.736C32.0541 17.544 32.1501 17.368 32.3421 17.208C32.5341 17.016 32.9501 16.92 33.5901 16.92C33.8461 16.92 34.0381 17 34.1661 17.16C34.3261 17.288 34.4381 17.448 34.5021 17.64C34.5661 17.832 34.5981 18.024 34.5981 18.216C34.6301 18.376 34.6461 18.488 34.6461 18.552C34.6461 18.584 34.6301 18.808 34.5981 19.224C34.5661 19.64 34.5341 20.104 34.5021 20.616C34.5021 21.096 34.4861 21.56 34.4541 22.008C34.4221 22.456 34.4061 22.728 34.4061 22.824C34.4061 22.92 34.4541 23.112 34.5501 23.4C34.6461 23.688 34.7581 23.992 34.8861 24.312C35.0461 24.6 35.2221 24.872 35.4141 25.128C35.6061 25.352 35.8141 25.464 36.0381 25.464C36.4221 25.464 36.7741 25.416 37.0941 25.32C37.4461 25.192 37.7661 25.064 38.0541 24.936C38.3741 24.776 38.6621 24.648 38.9181 24.552C39.1741 24.424 39.4141 24.36 39.6381 24.36C39.9261 24.36 40.1821 24.424 40.4061 24.552C40.6621 24.68 40.7901 24.84 40.7901 25.032ZM63.5009 31.128C63.5009 31.448 63.3569 31.736 63.0689 31.992C62.7809 32.248 62.4609 32.376 62.1089 32.376C62.0449 32.376 61.9489 32.344 61.8209 32.28C61.6929 32.184 61.5969 32.104 61.5329 32.04C60.1889 30.76 58.7649 29.496 57.2609 28.248C55.7569 27 54.2369 25.72 52.7009 24.408C51.1649 23.096 49.6449 21.72 48.1409 20.28C46.6689 18.84 45.2769 17.272 43.9649 15.576C44.3809 17.304 44.9409 19.144 45.6449 21.096C46.3489 23.016 47.0209 24.824 47.6609 26.52C48.3329 28.216 48.9089 29.688 49.3889 30.936C49.8689 32.152 50.1089 32.92 50.1089 33.24C50.1089 33.624 49.9489 33.928 49.6289 34.152C49.3409 34.408 49.0369 34.536 48.7169 34.536C48.5249 34.536 48.3169 34.328 48.0929 33.912C47.8689 33.528 47.6129 33.016 47.3249 32.376C47.0689 31.736 46.7969 31.032 46.5089 30.264C46.2529 29.464 45.9969 28.68 45.7409 27.912C45.4849 27.112 45.2449 26.376 45.0209 25.704C44.7969 25 44.6209 24.424 44.4929 23.976L43.1969 20.088C42.9089 19.256 42.6209 18.408 42.3329 17.544C42.0449 16.648 41.7729 15.816 41.5169 15.048C41.2929 14.28 41.1009 13.608 40.9409 13.032C40.8129 12.456 40.7489 12.072 40.7489 11.88C40.7489 11.528 40.7969 11.176 40.8929 10.824C40.9889 10.44 41.1649 10.248 41.4209 10.248C41.5809 10.248 41.6929 10.296 41.7569 10.392C41.8209 10.456 41.8849 10.488 41.9489 10.488L42.5249 10.248C42.6849 10.248 42.9569 10.456 43.3409 10.872C43.7569 11.256 44.2209 11.768 44.7329 12.408C45.2769 13.048 45.8529 13.768 46.4609 14.568C47.0689 15.368 47.6769 16.152 48.2849 16.92C48.9249 17.688 49.5169 18.408 50.0609 19.08C50.6369 19.752 51.1489 20.28 51.5969 20.664C52.3009 21.304 53.0049 21.912 53.7089 22.488C54.4129 23.064 55.1169 23.656 55.8209 24.264C56.5569 24.84 57.3249 25.464 58.1249 26.136C58.9249 26.808 59.8049 27.576 60.7649 28.44C60.7969 28.472 60.8769 28.488 61.0049 28.488C61.0689 28.488 61.1009 28.408 61.1009 28.248C61.1009 28.088 61.1009 27.896 61.1009 27.672C61.1009 27.224 60.9729 26.424 60.7169 25.272C60.4609 24.088 60.0929 22.728 59.6129 21.192C59.1649 19.624 58.6369 17.96 58.0289 16.2C57.4209 14.408 56.7649 12.696 56.0609 11.064C55.3889 9.4 54.6689 7.896 53.9009 6.552C53.1649 5.208 52.4449 4.168 51.7409 3.432C51.5489 3.24 51.4049 2.952 51.3089 2.568C51.2449 2.184 51.2129 1.864 51.2129 1.608C51.2129 1.384 51.3569 1.144 51.6449 0.887999C51.9649 0.599998 52.2529 0.455998 52.5089 0.455998C52.8929 0.455998 53.3249 0.839998 53.8049 1.608C54.2849 2.376 54.7969 3.384 55.3409 4.632C55.8849 5.848 56.4289 7.224 56.9729 8.76C57.5489 10.296 58.1089 11.848 58.6529 13.416C59.2929 15.272 59.8849 17.112 60.4289 18.936C61.0049 20.728 61.5009 22.408 61.9169 23.976C62.3649 25.544 62.7169 26.952 62.9729 28.2C63.2609 29.448 63.4369 30.424 63.5009 31.128ZM77.3084 28.776C77.3084 29.128 77.1804 29.368 76.9244 29.496C76.6684 29.624 76.5404 29.8 76.5404 30.024C76.5084 29.992 76.5724 30.168 76.7324 30.552C76.8924 30.936 77.0364 31.336 77.1644 31.752C77.3884 32.616 77.5804 33.368 77.7404 34.008C77.9324 34.648 78.0764 35.24 78.1724 35.784C78.3004 36.328 78.3964 36.872 78.4604 37.416C78.5244 37.96 78.5564 38.568 78.5564 39.24C78.5564 39.912 78.4444 40.6 78.2204 41.304C77.9964 42.008 77.6764 42.632 77.2604 43.176C76.8444 43.72 76.3324 44.168 75.7244 44.52C75.1164 44.872 74.4284 45.048 73.6604 45.048C72.4764 45.048 71.5324 44.808 70.8284 44.328C70.1564 43.848 69.6444 43.304 69.2924 42.696C68.9404 42.088 68.7164 41.48 68.6204 40.872C68.5244 40.296 68.4764 39.912 68.4764 39.72C68.4764 38.536 68.7804 37.352 69.3884 36.168C69.9964 34.984 70.6684 33.912 71.4044 32.952C72.1404 31.992 72.8124 31.192 73.4204 30.552C74.0284 29.912 74.3324 29.544 74.3324 29.448L73.8044 27.864C73.4844 28.248 73.1964 28.68 72.9404 29.16C72.7164 29.608 72.4604 30.04 72.1724 30.456C71.9164 30.84 71.5964 31.176 71.2124 31.464C70.8604 31.72 70.4124 31.848 69.8684 31.848C69.2924 31.848 68.7164 31.672 68.1404 31.32C67.5644 30.968 67.0524 30.44 66.6044 29.736C66.1564 29.032 65.7884 28.184 65.5004 27.192C65.2444 26.2 65.1164 25.048 65.1164 23.736C65.1164 23 65.2284 22.088 65.4524 21C65.6764 19.88 66.0284 18.808 66.5084 17.784C66.9884 16.76 67.5804 15.896 68.2844 15.192C69.0204 14.456 69.8684 14.088 70.8284 14.088C71.3724 14.088 71.8684 14.184 72.3164 14.376C72.7964 14.568 73.0364 14.808 73.0364 15.096C73.0364 15.352 72.9884 15.56 72.8924 15.72C72.7964 15.88 72.6684 16.04 72.5084 16.2C72.4124 16.136 72.3004 16.072 72.1724 16.008C72.0764 15.944 71.9324 15.912 71.7404 15.912C71.0364 15.912 70.3964 16.232 69.8204 16.872C69.2764 17.48 68.8124 18.248 68.4284 19.176C68.0444 20.072 67.7404 21.016 67.5164 22.008C67.3244 23 67.2284 23.864 67.2284 24.6C67.2284 26.232 67.5004 27.48 68.0444 28.344C68.5884 29.176 69.1644 29.592 69.7724 29.592C70.0604 29.592 70.3644 29.384 70.6844 28.968C71.0364 28.52 71.3564 28.04 71.6444 27.528C71.9644 26.984 72.2364 26.472 72.4604 25.992C72.6844 25.512 72.8124 25.224 72.8444 25.128C72.9084 24.808 72.9404 24.44 72.9404 24.024C72.9404 23.672 72.9244 23.288 72.8924 22.872C72.8924 22.424 72.8924 21.976 72.8924 21.528C72.8924 20.696 72.9564 20.008 73.0844 19.464C73.2124 18.888 73.5324 18.6 74.0444 18.6C74.5564 18.6 74.9244 18.76 75.1484 19.08C75.3724 19.368 75.4844 19.72 75.4844 20.136C75.4844 20.424 75.4684 20.776 75.4364 21.192C75.4364 21.576 75.4364 21.96 75.4364 22.344C75.4364 22.696 75.4204 23.016 75.3884 23.304C75.3884 23.56 75.3884 23.72 75.3884 23.784C75.3884 23.976 75.4044 24.264 75.4364 24.648C75.5004 25 75.5484 25.368 75.5804 25.752C75.6444 26.104 75.6924 26.44 75.7244 26.76C75.7884 27.048 75.8364 27.24 75.8684 27.336C75.9004 27.432 75.9484 27.576 76.0124 27.768C76.0764 27.96 76.1404 28.104 76.2044 28.2C76.2364 28.136 76.3004 28.072 76.3964 28.008C76.4924 27.912 76.5724 27.832 76.6364 27.768C76.7964 27.864 76.9404 28.056 77.0684 28.344C77.2284 28.6 77.3084 28.744 77.3084 28.776ZM75.6764 34.872C75.5484 34.36 75.4044 33.848 75.2444 33.336C75.0844 32.824 74.9244 32.296 74.7644 31.752C74.2204 32.424 73.6924 33.064 73.1804 33.672C72.7004 34.312 72.2524 34.936 71.8364 35.544C71.4524 36.152 71.1324 36.776 70.8764 37.416C70.6524 38.088 70.5404 38.792 70.5404 39.528C70.5404 40.52 70.8124 41.336 71.3564 41.976C71.9324 42.616 72.5564 42.936 73.2284 42.936C73.9644 42.936 74.6524 42.664 75.2924 42.12C75.9644 41.576 76.3004 40.792 76.3004 39.768C76.3004 39.096 76.2844 38.536 76.2524 38.088C76.2204 37.64 76.1724 37.24 76.1084 36.888C76.0764 36.568 76.0124 36.248 75.9164 35.928C75.8524 35.64 75.7724 35.288 75.6764 34.872ZM97.087 25.032C97.087 25.32 96.895 25.624 96.511 25.944C96.127 26.264 95.679 26.568 95.167 26.856C94.655 27.112 94.127 27.336 93.583 27.528C93.071 27.72 92.687 27.816 92.431 27.816C92.143 27.816 91.823 27.736 91.471 27.576C91.151 27.416 90.831 27.224 90.511 27C90.223 26.776 89.967 26.568 89.743 26.376C89.519 26.184 89.375 26.056 89.311 25.992C89.215 26.088 89.071 26.28 88.879 26.568C88.687 26.856 88.447 27.176 88.159 27.528C87.903 27.848 87.615 28.136 87.295 28.392C87.007 28.648 86.703 28.776 86.383 28.776C85.551 28.776 84.831 28.328 84.223 27.432C83.615 26.536 83.103 25.512 82.687 24.36C82.303 23.208 81.999 22.104 81.775 21.048C81.583 19.96 81.487 19.224 81.487 18.84C81.487 18.616 81.599 18.44 81.823 18.312C82.079 18.152 82.271 18.072 82.399 18.072C82.847 18.072 83.151 18.232 83.311 18.552C83.471 18.84 83.551 19.16 83.551 19.512C83.551 19.8 83.631 20.312 83.791 21.048C83.983 21.784 84.207 22.536 84.463 23.304C84.719 24.072 84.991 24.76 85.279 25.368C85.567 25.944 85.823 26.232 86.047 26.232C86.463 26.232 86.815 25.976 87.103 25.464C87.423 24.92 87.679 24.312 87.871 23.64C88.063 22.936 88.207 22.28 88.303 21.672C88.399 21.032 88.447 20.616 88.447 20.424C88.447 20.392 88.447 20.296 88.447 20.136C88.479 19.944 88.511 19.752 88.543 19.56C88.575 19.368 88.591 19.192 88.591 19.032C88.623 18.872 88.639 18.76 88.639 18.696C88.639 18.472 88.591 18.328 88.495 18.264C88.399 18.168 88.351 17.992 88.351 17.736C88.351 17.544 88.447 17.368 88.639 17.208C88.831 17.016 89.247 16.92 89.887 16.92C90.143 16.92 90.335 17 90.463 17.16C90.623 17.288 90.735 17.448 90.799 17.64C90.863 17.832 90.895 18.024 90.895 18.216C90.927 18.376 90.943 18.488 90.943 18.552C90.943 18.584 90.927 18.808 90.895 19.224C90.863 19.64 90.831 20.104 90.799 20.616C90.799 21.096 90.783 21.56 90.751 22.008C90.719 22.456 90.703 22.728 90.703 22.824C90.703 22.92 90.751 23.112 90.847 23.4C90.943 23.688 91.055 23.992 91.183 24.312C91.343 24.6 91.519 24.872 91.711 25.128C91.903 25.352 92.111 25.464 92.335 25.464C92.719 25.464 93.071 25.416 93.391 25.32C93.743 25.192 94.063 25.064 94.351 24.936C94.671 24.776 94.959 24.648 95.215 24.552C95.471 24.424 95.711 24.36 95.935 24.36C96.223 24.36 96.479 24.424 96.703 24.552C96.959 24.68 97.087 24.84 97.087 25.032ZM107.606 22.632C107.606 23.336 107.51 24.008 107.318 24.648C107.126 25.288 106.87 25.848 106.55 26.328C106.23 26.808 105.846 27.192 105.398 27.48C104.982 27.736 104.518 27.864 104.006 27.864C103.11 27.864 102.406 27.608 101.894 27.096C101.382 26.584 100.982 25.992 100.694 25.32C100.438 24.648 100.262 23.976 100.166 23.304C100.102 22.6 100.07 22.072 100.07 21.72C100.07 21.144 100.15 20.504 100.31 19.8C100.502 19.064 100.742 18.392 101.03 17.784C101.35 17.176 101.702 16.664 102.086 16.248C102.47 15.832 102.87 15.624 103.286 15.624C103.382 15.624 103.526 15.656 103.718 15.72C103.942 15.784 104.166 15.88 104.39 16.008C104.614 16.136 104.806 16.296 104.966 16.488C105.158 16.68 105.286 16.904 105.35 17.16C105.702 17.192 106.054 17.32 106.406 17.544C106.758 17.768 106.95 17.944 106.982 18.072C107.238 18.904 107.398 19.736 107.462 20.568C107.558 21.4 107.606 22.088 107.606 22.632ZM105.446 21.768C105.446 21.288 105.398 20.792 105.302 20.28C105.206 19.736 105.014 19.192 104.726 18.648C104.662 18.68 104.582 18.696 104.486 18.696C104.358 18.696 104.246 18.68 104.15 18.648C104.086 18.616 104.022 18.6 103.958 18.6C103.574 18.6 103.27 18.712 103.046 18.936C102.822 19.128 102.646 19.4 102.518 19.752C102.422 20.072 102.358 20.424 102.326 20.808C102.294 21.192 102.278 21.56 102.278 21.912C102.278 22.264 102.294 22.664 102.326 23.112C102.358 23.528 102.422 23.928 102.518 24.312C102.646 24.696 102.806 25.032 102.998 25.32C103.19 25.576 103.446 25.704 103.766 25.704C104.086 25.704 104.358 25.544 104.582 25.224C104.806 24.872 104.982 24.472 105.11 24.024C105.238 23.576 105.318 23.144 105.35 22.728C105.414 22.28 105.446 21.96 105.446 21.768ZM115.299 10.92C115.299 10.984 115.187 11.112 114.963 11.304C114.739 11.496 114.467 11.704 114.147 11.928C113.859 12.12 113.555 12.296 113.235 12.456C112.915 12.616 112.659 12.696 112.467 12.696C112.339 12.696 112.163 12.696 111.939 12.696C111.747 12.664 111.539 12.6 111.315 12.504C111.123 12.408 110.947 12.28 110.787 12.12C110.627 11.928 110.547 11.688 110.547 11.4C110.547 10.952 110.707 10.536 111.027 10.152C111.347 9.736 111.763 9.528 112.275 9.528C112.371 9.528 112.579 9.576 112.899 9.672C113.251 9.736 113.603 9.832 113.955 9.96C114.307 10.088 114.611 10.232 114.867 10.392C115.155 10.552 115.299 10.728 115.299 10.92ZM116.883 28.872C116.883 29.096 116.707 29.288 116.355 29.448C116.035 29.608 115.795 29.688 115.635 29.688C115.315 29.688 115.027 29.48 114.771 29.064C114.515 28.648 114.291 28.168 114.099 27.624C113.907 27.08 113.747 26.568 113.619 26.088C113.491 25.576 113.395 25.224 113.331 25.032C113.235 24.712 113.107 24.328 112.947 23.88C112.787 23.432 112.627 23 112.467 22.584C112.339 22.168 112.227 21.8 112.131 21.48C112.035 21.16 111.987 20.984 111.987 20.952C111.987 20.504 112.067 20.088 112.227 19.704C112.419 19.32 112.643 19.128 112.899 19.128C113.187 19.128 113.491 19.352 113.811 19.8C114.131 20.248 114.435 20.824 114.723 21.528C115.043 22.2 115.331 22.952 115.587 23.784C115.843 24.584 116.067 25.352 116.259 26.088C116.451 26.792 116.595 27.416 116.691 27.96C116.819 28.472 116.883 28.776 116.883 28.872ZM142.912 35.592C142.976 35.784 143.04 35.96 143.104 36.12C143.168 36.28 143.216 36.456 143.248 36.648C143.312 36.84 143.344 37.016 143.344 37.176C143.344 37.4 143.264 37.576 143.104 37.704C142.944 37.864 142.752 37.992 142.528 38.088C142.336 38.184 142.144 38.248 141.952 38.28C141.76 38.312 141.648 38.328 141.616 38.328C141.424 38.328 141.072 37.736 140.56 36.552C140.048 35.4 139.488 33.768 138.88 31.656C138.304 29.544 137.712 27.032 137.104 24.12C136.496 21.208 136 18.008 135.616 14.52C135.552 15.256 135.424 16.12 135.232 17.112C135.072 18.072 134.816 18.984 134.464 19.848C134.112 20.712 133.648 21.448 133.072 22.056C132.528 22.632 131.824 22.92 130.96 22.92C130.352 22.92 129.664 22.6 128.896 21.96C128.128 21.32 127.376 20.568 126.64 19.704C125.936 18.808 125.28 17.912 124.672 17.016C124.096 16.088 123.664 15.336 123.376 14.76C123.504 16.168 123.712 17.864 124 19.848C124.32 21.832 124.8 23.928 125.44 26.136C125.504 26.36 125.568 26.536 125.632 26.664C125.728 26.76 125.808 26.872 125.872 27C125.968 27.128 126.032 27.272 126.064 27.432C126.128 27.56 126.16 27.768 126.16 28.056C126.16 28.472 126 28.776 125.68 28.968C125.36 29.16 125.056 29.256 124.768 29.256C124.608 29.256 124.4 29.016 124.144 28.536C123.888 28.024 123.616 27.368 123.328 26.568C123.04 25.768 122.752 24.888 122.464 23.928C122.176 22.936 121.904 21.96 121.648 21C121.424 20.04 121.232 19.144 121.072 18.312C120.912 17.448 120.832 16.76 120.832 16.248C120.832 15.416 120.864 14.84 120.928 14.52C121.024 14.2 121.152 13.96 121.312 13.8V10.872C121.312 10.424 121.424 10.088 121.648 9.864C121.904 9.608 122.224 9.48 122.608 9.48C122.928 9.48 123.296 9.752 123.712 10.296C124.128 10.84 124.576 11.528 125.056 12.36C125.568 13.192 126.096 14.088 126.64 15.048C127.184 16.008 127.712 16.904 128.224 17.736C128.768 18.568 129.28 19.256 129.76 19.8C130.272 20.344 130.752 20.616 131.2 20.616C131.616 20.616 132.016 20.232 132.4 19.464C132.784 18.664 133.136 17.624 133.456 16.344C133.808 15.064 134.112 13.608 134.368 11.976C134.624 10.344 134.832 8.68 134.992 6.984C134.992 6.792 134.976 6.584 134.944 6.36C134.912 6.104 134.896 5.832 134.896 5.544C134.896 5.16 134.976 4.744 135.136 4.296C135.328 3.848 135.68 3.624 136.192 3.624C136.48 3.624 136.704 3.704 136.864 3.864C137.056 4.024 137.184 4.232 137.248 4.488C137.312 4.712 137.344 4.952 137.344 5.208C137.376 5.432 137.392 5.624 137.392 5.784C137.392 6.04 137.36 6.472 137.296 7.08C137.264 7.656 137.248 8.552 137.248 9.768C137.248 10.824 137.328 12.056 137.488 13.464C137.648 14.84 137.856 16.312 138.112 17.88C138.4 19.416 138.72 21.016 139.072 22.68C139.456 24.312 139.856 25.912 140.272 27.48C140.72 29.048 141.152 30.536 141.568 31.944C142.016 33.32 142.464 34.536 142.912 35.592ZM153.121 22.632C153.121 23.336 153.025 24.008 152.833 24.648C152.641 25.288 152.385 25.848 152.065 26.328C151.745 26.808 151.361 27.192 150.913 27.48C150.497 27.736 150.033 27.864 149.521 27.864C148.625 27.864 147.921 27.608 147.409 27.096C146.897 26.584 146.497 25.992 146.209 25.32C145.953 24.648 145.777 23.976 145.681 23.304C145.617 22.6 145.585 22.072 145.585 21.72C145.585 21.144 145.665 20.504 145.825 19.8C146.017 19.064 146.257 18.392 146.545 17.784C146.865 17.176 147.217 16.664 147.601 16.248C147.985 15.832 148.385 15.624 148.801 15.624C148.897 15.624 149.041 15.656 149.233 15.72C149.457 15.784 149.681 15.88 149.905 16.008C150.129 16.136 150.321 16.296 150.481 16.488C150.673 16.68 150.801 16.904 150.865 17.16C151.217 17.192 151.569 17.32 151.921 17.544C152.273 17.768 152.465 17.944 152.497 18.072C152.753 18.904 152.913 19.736 152.977 20.568C153.073 21.4 153.121 22.088 153.121 22.632ZM150.961 21.768C150.961 21.288 150.913 20.792 150.817 20.28C150.721 19.736 150.529 19.192 150.241 18.648C150.177 18.68 150.097 18.696 150.001 18.696C149.873 18.696 149.761 18.68 149.665 18.648C149.601 18.616 149.537 18.6 149.473 18.6C149.089 18.6 148.785 18.712 148.561 18.936C148.337 19.128 148.161 19.4 148.033 19.752C147.937 20.072 147.873 20.424 147.841 20.808C147.809 21.192 147.793 21.56 147.793 21.912C147.793 22.264 147.809 22.664 147.841 23.112C147.873 23.528 147.937 23.928 148.033 24.312C148.161 24.696 148.321 25.032 148.513 25.32C148.705 25.576 148.961 25.704 149.281 25.704C149.601 25.704 149.873 25.544 150.097 25.224C150.321 24.872 150.497 24.472 150.625 24.024C150.753 23.576 150.833 23.144 150.865 22.728C150.929 22.28 150.961 21.96 150.961 21.768ZM160.815 10.92C160.815 10.984 160.703 11.112 160.479 11.304C160.255 11.496 159.983 11.704 159.663 11.928C159.375 12.12 159.071 12.296 158.751 12.456C158.431 12.616 158.175 12.696 157.983 12.696C157.855 12.696 157.679 12.696 157.455 12.696C157.263 12.664 157.055 12.6 156.831 12.504C156.639 12.408 156.463 12.28 156.303 12.12C156.143 11.928 156.062 11.688 156.062 11.4C156.062 10.952 156.223 10.536 156.543 10.152C156.863 9.736 157.279 9.528 157.791 9.528C157.887 9.528 158.095 9.576 158.415 9.672C158.767 9.736 159.119 9.832 159.471 9.96C159.823 10.088 160.127 10.232 160.383 10.392C160.671 10.552 160.815 10.728 160.815 10.92ZM162.398 28.872C162.398 29.096 162.223 29.288 161.871 29.448C161.551 29.608 161.311 29.688 161.151 29.688C160.831 29.688 160.543 29.48 160.287 29.064C160.031 28.648 159.807 28.168 159.615 27.624C159.423 27.08 159.263 26.568 159.135 26.088C159.007 25.576 158.911 25.224 158.847 25.032C158.751 24.712 158.623 24.328 158.463 23.88C158.303 23.432 158.143 23 157.983 22.584C157.855 22.168 157.743 21.8 157.646 21.48C157.551 21.16 157.503 20.984 157.503 20.952C157.503 20.504 157.583 20.088 157.743 19.704C157.935 19.32 158.159 19.128 158.415 19.128C158.703 19.128 159.007 19.352 159.327 19.8C159.647 20.248 159.951 20.824 160.239 21.528C160.559 22.2 160.847 22.952 161.103 23.784C161.359 24.584 161.583 25.352 161.775 26.088C161.967 26.792 162.111 27.416 162.207 27.96C162.335 28.472 162.398 28.776 162.398 28.872ZM191.932 6.648C191.932 6.872 191.836 7.064 191.644 7.224C191.484 7.352 191.324 7.416 191.164 7.416C190.876 7.416 190.412 7.448 189.772 7.512C189.164 7.576 188.492 7.656 187.756 7.752C187.052 7.816 186.348 7.896 185.644 7.992C184.972 8.056 184.428 8.12 184.012 8.184C183.884 8.184 183.612 8.2 183.196 8.232C182.812 8.264 182.364 8.312 181.852 8.376C181.372 8.408 180.876 8.456 180.364 8.52C179.884 8.584 179.5 8.632 179.212 8.664C178.86 8.728 178.348 8.84 177.676 9C177.004 9.16 176.396 9.32 175.852 9.48C175.66 9.544 175.484 9.592 175.324 9.624C175.164 9.656 175.036 9.688 174.94 9.72C174.812 9.752 174.7 9.784 174.604 9.816L177.196 18.984C177.292 19.272 177.452 19.736 177.676 20.376C177.9 21.016 178.156 21.72 178.444 22.488C178.764 23.256 179.084 24.056 179.404 24.888C179.756 25.72 180.06 26.488 180.316 27.192C180.476 27.608 180.652 28.12 180.844 28.728C181.036 29.336 181.212 29.96 181.372 30.6C181.532 31.208 181.66 31.768 181.756 32.28C181.884 32.792 181.948 33.144 181.948 33.336C181.948 33.784 181.82 34.248 181.564 34.728C181.308 35.24 180.972 35.496 180.556 35.496C180.172 35.496 179.98 35.224 179.98 34.68V34.344C179.98 34.248 179.98 34.136 179.98 34.008C180.012 33.88 180.028 33.736 180.028 33.576C180.028 33.32 179.932 32.888 179.74 32.28C179.548 31.64 179.308 30.936 179.02 30.168C178.732 29.368 178.412 28.536 178.06 27.672C177.74 26.776 177.42 25.944 177.1 25.176C176.812 24.376 176.556 23.704 176.332 23.16C176.108 22.584 175.964 22.2 175.9 22.008C175.804 21.752 175.676 21.384 175.516 20.904C175.388 20.424 175.228 19.88 175.036 19.272C174.844 18.664 174.636 18.024 174.412 17.352C174.22 16.648 174.028 15.96 173.836 15.288C173.356 13.72 172.828 12.008 172.252 10.152C172.092 10.184 171.564 10.264 170.668 10.392C169.804 10.488 168.828 10.6 167.74 10.728C166.652 10.856 165.612 10.984 164.62 11.112C163.628 11.208 162.956 11.256 162.604 11.256C161.804 11.256 161.292 11.128 161.068 10.872C160.844 10.616 160.716 10.296 160.684 9.912C160.684 9.656 160.748 9.4 160.876 9.144C161.004 8.856 161.18 8.712 161.404 8.712C161.66 8.712 161.868 8.76 162.028 8.856C162.156 8.92 162.332 8.952 162.556 8.952C162.62 8.952 162.94 8.92 163.516 8.856C164.124 8.792 164.828 8.712 165.628 8.616C166.46 8.52 167.308 8.424 168.172 8.328C169.068 8.232 169.852 8.152 170.524 8.088C170.684 8.088 170.844 8.088 171.004 8.088C171.196 8.056 171.372 8.024 171.532 7.992C171.692 7.96 171.852 7.944 172.012 7.944C172.012 7.848 172.06 7.64 172.156 7.32C172.284 6.968 172.412 6.792 172.54 6.792C172.86 6.792 173.116 6.92 173.308 7.176C173.532 7.4 173.724 7.56 173.884 7.656C174.108 7.624 174.444 7.56 174.892 7.464C175.372 7.336 175.868 7.224 176.38 7.128C176.924 7.032 177.436 6.952 177.916 6.888C178.428 6.792 178.86 6.728 179.212 6.696L184.828 6.36C185.308 6.328 185.852 6.296 186.46 6.264C187.1 6.2 187.724 6.136 188.332 6.072C188.94 6.008 189.468 5.96 189.916 5.928C190.364 5.864 190.668 5.832 190.828 5.832C191.116 5.864 191.372 5.96 191.596 6.12C191.82 6.28 191.932 6.456 191.932 6.648ZM208.72 23.016C208.72 23.592 208.448 24.312 207.904 25.176C207.392 26.008 206.688 26.824 205.792 27.624C204.896 28.424 203.856 29.112 202.672 29.688C201.488 30.232 200.256 30.504 198.976 30.504C198.4 30.504 197.792 30.408 197.152 30.216C196.512 30.024 195.888 29.752 195.28 29.4C194.672 29.016 194.128 28.568 193.648 28.056C193.168 27.512 192.816 26.904 192.592 26.232C192.4 26.424 192.16 26.744 191.872 27.192C191.616 27.64 191.328 28.104 191.008 28.584C190.688 29.032 190.336 29.432 189.952 29.784C189.568 30.104 189.168 30.264 188.752 30.264C188.336 30.264 187.984 30.056 187.696 29.64C187.44 29.192 187.232 28.712 187.072 28.2C186.912 27.656 186.8 27.144 186.736 26.664C186.672 26.184 186.64 25.912 186.64 25.848C186.64 25.464 186.752 24.744 186.976 23.688C187.2 22.6 187.536 21.48 187.984 20.328C188.432 19.176 188.992 18.152 189.664 17.256C190.368 16.36 191.184 15.912 192.112 15.912C192.464 15.912 192.688 16.072 192.784 16.392C192.912 16.68 192.976 16.968 192.976 17.256V18.696C193.136 18.824 193.296 18.92 193.456 18.984C193.648 19.016 193.808 19.08 193.936 19.176C194.096 19.24 194.208 19.352 194.272 19.512C194.368 19.672 194.416 19.928 194.416 20.28C194.416 20.504 194.4 20.712 194.368 20.904C194.336 21.064 194.32 21.224 194.32 21.384C194.32 22.216 194.384 23.032 194.512 23.832C194.64 24.632 194.896 25.352 195.28 25.992C195.664 26.6 196.192 27.112 196.864 27.528C197.536 27.912 198.432 28.104 199.552 28.104C200.96 28.104 202.144 27.816 203.104 27.24C204.096 26.632 204.912 25.976 205.552 25.272C206.224 24.536 206.752 23.88 207.136 23.304C207.52 22.696 207.84 22.392 208.096 22.392C208.512 22.392 208.72 22.6 208.72 23.016ZM191.872 20.904C191.872 20.776 191.84 20.664 191.776 20.568C191.712 20.44 191.68 20.328 191.68 20.232C191.68 20.104 191.712 19.992 191.776 19.896C191.84 19.8 191.872 19.672 191.872 19.512C191.872 19.416 191.84 19.352 191.776 19.32C191.712 19.256 191.68 19.192 191.68 19.128C191.392 19.192 191.088 19.464 190.768 19.944C190.48 20.424 190.192 20.984 189.904 21.624C189.648 22.264 189.44 22.92 189.28 23.592C189.12 24.232 189.04 24.76 189.04 25.176C189.04 25.4 189.104 25.768 189.232 26.28C189.36 26.792 189.504 27.128 189.664 27.288C190.208 26.168 190.704 25.08 191.152 24.024C191.632 22.968 191.872 21.928 191.872 20.904Z" fill="black"/>
</svg>
